<svg width="1666" height="1127" xmlns="http://www.w3.org/2000/svg" xmlns:xlink="http://www.w3.org/1999/xlink" xml:space="preserve" overflow="hidden"><defs><clipPath id="clip0"><rect x="1367" y="674" width="1666" height="1127"/></clipPath><clipPath id="clip1"><rect x="1446" y="674" width="981" height="662"/></clipPath><clipPath id="clip2"><rect x="1446" y="674" width="981" height="662"/></clipPath></defs><g clip-path="url(#clip0)" transform="translate(-1367 -674)"><rect x="1367" y="1460" width="272" height="341" fill="#D9F2D0"/><rect x="1716" y="1349" width="272" height="452" fill="#C0DFC6"/><rect x="2064" y="1229" width="272" height="572" fill="#88B6B0"/><rect x="2412" y="1077" width="272" height="724" fill="#3D7E92"/><rect x="2761" y="943" width="272" height="858" fill="#176183"/><g clip-path="url(#clip1)"><g clip-path="url(#clip2)"><g><path d="M315.591 220.914 220.914 220.914 220.914 1293.93 1293.93 1293.93 1293.93 1199.25 315.591 1199.25Z" fill="#156082" transform="matrix(1.00126 0 0 1 1101.87 271.947)"/><path d="M1041.45 489.167 1134.55 582.266 1009.89 706.925 915.215 612.247 757.42 770.043 662.742 675.366 377.132 960.976 443.406 1027.25 662.742 807.914 757.42 902.592 915.215 744.796 1009.89 839.473 1200.83 648.54 1293.93 741.64 1293.93 489.167Z" fill="#156082" transform="matrix(1.00126 0 0 1 1101.87 271.947)"/></g></g></g></g></svg>