<svg width="4543" height="1680" xmlns="http://www.w3.org/2000/svg" xmlns:xlink="http://www.w3.org/1999/xlink" xml:space="preserve" overflow="hidden"><defs><clipPath id="clip0"><rect x="-245" y="660" width="4543" height="1680"/></clipPath><clipPath id="clip1"><rect x="2711" y="660" width="981" height="663"/></clipPath><clipPath id="clip2"><rect x="2711" y="660" width="981" height="663"/></clipPath></defs><g clip-path="url(#clip0)" transform="translate(245 -660)"><text fill="#404040" font-family="Futura PT Bold Italic,Futura PT Bold Italic_MSFontService,sans-serif" font-style="italic" font-weight="700" font-size="633" transform="matrix(1 0 0 1 135.493 1782)">FinDash</text><rect x="2632" y="1446" width="272" height="342" fill="#D9F2D0"/><rect x="2981" y="1336" width="271" height="452" fill="#C0DFC6"/><rect x="3329" y="1216" width="272" height="572" fill="#88B6B0"/><rect x="3677" y="1063" width="272" height="725" fill="#3D7E92"/><rect x="4026" y="929" width="272" height="859" fill="#176183"/><g clip-path="url(#clip1)"><g clip-path="url(#clip2)"><g><path d="M315.988 221.192 221.192 221.192 221.192 1295.55 1295.55 1295.55 1295.55 1200.76 315.988 1200.76Z" fill="#156082" transform="matrix(1 0 0 1.00026 2366.87 257.338)"/><path d="M1042.76 489.782 1135.98 582.998 1011.16 707.814 916.366 613.017 758.372 771.012 663.576 676.215 377.606 962.185 443.964 1028.54 663.576 808.93 758.372 903.727 916.366 745.732 1011.16 840.529 1202.34 649.356 1295.55 742.573 1295.55 489.782Z" fill="#156082" transform="matrix(1 0 0 1.00026 2366.87 257.338)"/></g></g></g></g></svg>